<svg width="94" height="48" viewBox="0 0 94 48" fill="none" xmlns="http://www.w3.org/2000/svg">
<circle cx="24" cy="24" r="23.5" fill="#4C4D4F" stroke="#4C4D4F"/>
<path d="M20.9034 28V27.233L23.7841 24.0795C24.1222 23.7102 24.4006 23.3892 24.6193 23.1165C24.8381 22.8409 25 22.5824 25.1051 22.3409C25.2131 22.0966 25.267 21.8409 25.267 21.5739C25.267 21.267 25.1932 21.0014 25.0455 20.777C24.9006 20.5526 24.7017 20.3793 24.4489 20.2571C24.196 20.1349 23.9119 20.0739 23.5966 20.0739C23.2614 20.0739 22.9688 20.1435 22.7188 20.2827C22.4716 20.419 22.2798 20.6108 22.1435 20.858C22.0099 21.1051 21.9432 21.3949 21.9432 21.7273H20.9375C20.9375 21.2159 21.0554 20.767 21.2912 20.3807C21.527 19.9943 21.848 19.6932 22.2543 19.4773C22.6634 19.2614 23.1222 19.1534 23.6307 19.1534C24.142 19.1534 24.5952 19.2614 24.9901 19.4773C25.3849 19.6932 25.6946 19.9844 25.919 20.3509C26.1435 20.7173 26.2557 21.125 26.2557 21.5739C26.2557 21.8949 26.1974 22.2088 26.081 22.5156C25.9673 22.8196 25.7685 23.1591 25.4844 23.5341C25.2031 23.9062 24.8125 24.3608 24.3125 24.8977L22.3523 26.9943V27.0625H26.4091V28H20.9034Z" fill="white"/>
<path d="M59.12 29V19.2H62.214C63.0913 19.2 63.7797 19.3983 64.279 19.795C64.7783 20.187 65.028 20.7867 65.028 21.594C65.028 22.14 64.909 22.6207 64.671 23.036C64.433 23.4513 64.076 23.722 63.6 23.848L63.796 23.624C64.4773 23.736 65.0047 24.009 65.378 24.443C65.7513 24.8723 65.938 25.458 65.938 26.2C65.938 27.0587 65.6603 27.74 65.105 28.244C64.5543 28.748 63.7913 29 62.816 29H59.12ZM60.45 27.796H62.704C63.2453 27.796 63.677 27.6607 63.999 27.39C64.321 27.1193 64.482 26.7087 64.482 26.158C64.482 25.542 64.3163 25.108 63.985 24.856C63.6583 24.604 63.2313 24.478 62.704 24.478H60.45V27.796ZM60.45 23.274H62.046C62.522 23.274 62.9093 23.1783 63.208 22.987C63.5067 22.7957 63.656 22.4107 63.656 21.832C63.656 21.258 63.5067 20.8753 63.208 20.684C62.9093 20.488 62.522 20.39 62.046 20.39H60.45V23.274ZM67.1255 29V22.14H68.3855V29H67.1255ZM67.1255 20.6V19.2H68.3855V20.6H67.1255ZM71.8563 29.14C71.4129 29.14 71.0606 29.0607 70.7993 28.902C70.5426 28.7387 70.3583 28.531 70.2463 28.279C70.1343 28.027 70.0783 27.7633 70.0783 27.488V18.5H71.3383V26.76C71.3383 27.152 71.3639 27.446 71.4153 27.642C71.4666 27.838 71.5693 27.9687 71.7233 28.034C71.8819 28.0993 72.1223 28.132 72.4443 28.132L72.2623 29.14H71.8563ZM75.1649 29.14C74.7215 29.14 74.3692 29.0607 74.1079 28.902C73.8512 28.7387 73.6669 28.531 73.5549 28.279C73.4429 28.027 73.3869 27.7633 73.3869 27.488V18.5H74.6469V26.76C74.6469 27.152 74.6725 27.446 74.7239 27.642C74.7752 27.838 74.8779 27.9687 75.0319 28.034C75.1905 28.0993 75.4309 28.132 75.7529 28.132L75.5709 29.14H75.1649ZM76.7095 29V22.14H77.9695V29H76.7095ZM76.7095 20.6V19.2H77.9695V20.6H76.7095ZM79.6763 29V22.14H80.6563L80.9083 23.456L80.4183 23.246C80.8803 22.7327 81.3306 22.3967 81.7693 22.238C82.2126 22.0793 82.6443 22 83.0643 22C84.0676 22 84.7839 22.2893 85.2133 22.868C85.6473 23.4467 85.8643 24.2307 85.8643 25.22V29H84.6043V25.22C84.6043 24.492 84.4689 23.96 84.1983 23.624C83.9276 23.288 83.4656 23.12 82.8123 23.12C82.3503 23.12 81.9256 23.2227 81.5383 23.428C81.1556 23.6287 80.9036 23.9507 80.7823 24.394L80.9363 23.624V29H79.6763ZM90.2686 32.5C89.6432 32.5 89.0832 32.423 88.5886 32.269C88.0986 32.115 87.7112 31.8863 87.4266 31.583C87.1466 31.2797 87.0066 30.904 87.0066 30.456C87.0066 30.0827 87.1116 29.7607 87.3216 29.49C87.5362 29.224 87.8279 29.0093 88.1966 28.846C87.9772 28.7387 87.8092 28.6127 87.6926 28.468C87.5806 28.3187 87.5246 28.1553 87.5246 27.978C87.5246 27.768 87.5876 27.579 87.7136 27.411C87.8442 27.2383 88.0519 27.096 88.3366 26.984C87.9539 26.746 87.6599 26.4263 87.4546 26.025C87.2492 25.619 87.1466 25.1687 87.1466 24.674C87.1466 24.1747 87.2586 23.7243 87.4826 23.323C87.7066 22.917 88.0286 22.595 88.4486 22.357C88.8732 22.119 89.3819 22 89.9746 22C90.2919 22 90.5906 22.0467 90.8706 22.14C91.1552 22.2333 91.4166 22.364 91.6546 22.532C91.8646 22.4107 92.1119 22.3103 92.3966 22.231C92.6859 22.1517 93.0079 22.112 93.3626 22.112C93.3859 22.112 93.4046 22.112 93.4186 22.112C93.4372 22.112 93.4559 22.112 93.4746 22.112L93.3206 22.952C93.2646 22.952 93.2109 22.952 93.1596 22.952C93.1082 22.952 93.0546 22.952 92.9986 22.952C92.9519 22.952 92.8446 22.959 92.6766 22.973C92.5086 22.987 92.3546 23.0127 92.2146 23.05C92.4059 23.274 92.5529 23.526 92.6556 23.806C92.7629 24.0813 92.8166 24.3707 92.8166 24.674C92.8166 25.1967 92.7022 25.6657 92.4736 26.081C92.2496 26.4917 91.9252 26.8183 91.5006 27.061C91.0759 27.299 90.5672 27.418 89.9746 27.418C89.8066 27.418 89.6456 27.4087 89.4916 27.39C89.3376 27.3667 89.1906 27.334 89.0506 27.292C88.8359 27.362 88.7286 27.4833 88.7286 27.656C88.7286 27.7587 88.7892 27.8497 88.9106 27.929C89.0319 28.0037 89.2279 28.062 89.4986 28.104L91.3326 28.398C92.0746 28.5147 92.6462 28.7293 93.0476 29.042C93.4536 29.3547 93.6566 29.798 93.6566 30.372C93.6566 30.848 93.5166 31.2423 93.2366 31.555C92.9612 31.8723 92.5692 32.108 92.0606 32.262C91.5519 32.4207 90.9546 32.5 90.2686 32.5ZM90.3806 31.38C91.0246 31.38 91.5192 31.296 91.8646 31.128C92.2099 30.9647 92.3826 30.722 92.3826 30.4C92.3826 30.148 92.2729 29.9497 92.0536 29.805C91.8389 29.6603 91.5286 29.5507 91.1226 29.476L89.1696 29.147C88.9129 29.259 88.6889 29.4083 88.4976 29.595C88.3062 29.7863 88.2106 30.008 88.2106 30.26C88.2106 30.652 88.4066 30.9367 88.7986 31.114C89.1952 31.2913 89.7226 31.38 90.3806 31.38ZM89.9746 26.41C90.5066 26.41 90.9126 26.2513 91.1926 25.934C91.4726 25.612 91.6126 25.1967 91.6126 24.688C91.6126 24.198 91.4726 23.7967 91.1926 23.484C90.9126 23.1667 90.5066 23.008 89.9746 23.008C89.4426 23.008 89.0389 23.1667 88.7636 23.484C88.4882 23.7967 88.3506 24.198 88.3506 24.688C88.3506 25.1967 88.4882 25.612 88.7636 25.934C89.0389 26.2513 89.4426 26.41 89.9746 26.41Z" fill="black"/>
</svg>
