<svg width="67" height="21" viewBox="0 0 67 21" fill="none" xmlns="http://www.w3.org/2000/svg">
<rect y="2" width="67" height="17" rx="8.5" fill="#FFF9F1"/>
<path d="M13.92 14.14C13.24 14.14 12.6333 13.9917 12.1 13.695C11.57 13.395 11.1517 12.9733 10.845 12.43C10.5417 11.8833 10.39 11.24 10.39 10.5C10.39 9.76 10.5433 9.11833 10.85 8.575C11.16 8.02833 11.5833 7.60667 12.12 7.31C12.66 7.01 13.2733 6.86 13.96 6.86C14.3167 6.86 14.6567 6.89833 14.98 6.975C15.3033 7.05167 15.5867 7.15 15.83 7.27L15.73 8.15C15.48 8.03 15.205 7.92833 14.905 7.845C14.605 7.76167 14.2867 7.72 13.95 7.72C13.4 7.72 12.9383 7.845 12.565 8.095C12.1917 8.34167 11.9083 8.675 11.715 9.095C11.525 9.515 11.43 9.98333 11.43 10.5C11.43 11.0167 11.5233 11.485 11.71 11.905C11.9 12.325 12.18 12.66 12.55 12.91C12.9233 13.1567 13.3833 13.28 13.93 13.28C14.2767 13.28 14.5967 13.2433 14.89 13.17C15.1867 13.0933 15.4667 12.99 15.73 12.86L15.83 13.74C15.58 13.8533 15.2983 13.9483 14.985 14.025C14.6717 14.1017 14.3167 14.14 13.92 14.14ZM17.9121 14.1C17.6088 14.1 17.3438 14.0383 17.1171 13.915C16.8904 13.7917 16.7138 13.6233 16.5871 13.41C16.4638 13.1967 16.4021 12.9533 16.4021 12.68C16.4021 12.4033 16.4621 12.1667 16.5821 11.97C16.7054 11.77 16.8688 11.605 17.0721 11.475C17.2788 11.3417 17.5088 11.2367 17.7621 11.16C18.0154 11.08 18.2771 11.0233 18.5471 10.99C18.8204 10.9533 19.0821 10.9333 19.3321 10.93C19.3321 10.4633 19.2404 10.1583 19.0571 10.015C18.8738 9.87167 18.6088 9.8 18.2621 9.8C18.0788 9.8 17.8821 9.82833 17.6721 9.885C17.4654 9.94167 17.2321 10.06 16.9721 10.24L16.8421 9.51C17.0388 9.36 17.2838 9.23833 17.5771 9.145C17.8704 9.04833 18.1788 9 18.5021 9C18.9154 9 19.2488 9.07333 19.5021 9.22C19.7554 9.36333 19.9404 9.60667 20.0571 9.95C20.1738 10.2933 20.2321 10.76 20.2321 11.35V12.35C20.2321 12.5833 20.2421 12.7767 20.2621 12.93C20.2854 13.08 20.3354 13.1933 20.4121 13.27C20.4921 13.3433 20.6188 13.38 20.7921 13.38H20.8821L20.7421 14.1H20.6721C20.3821 14.1 20.1571 14.0717 19.9971 14.015C19.8404 13.9583 19.7204 13.8767 19.6371 13.77C19.5538 13.6633 19.4788 13.5333 19.4121 13.38C19.2288 13.5933 19.0121 13.7667 18.7621 13.9C18.5121 14.0333 18.2288 14.1 17.9121 14.1ZM18.0821 13.38C18.3221 13.38 18.5538 13.32 18.7771 13.2C19.0038 13.08 19.1888 12.92 19.3321 12.72V11.55C18.8554 11.5667 18.4688 11.6133 18.1721 11.69C17.8788 11.7667 17.6638 11.8817 17.5271 12.035C17.3904 12.1883 17.3221 12.3867 17.3221 12.63C17.3221 12.8933 17.3921 13.085 17.5321 13.205C17.6754 13.3217 17.8588 13.38 18.0821 13.38ZM21.5768 14V9.1H22.2768L22.4568 10.04L22.1068 9.89C22.4368 9.52333 22.7585 9.28333 23.0718 9.17C23.3885 9.05667 23.6968 9 23.9968 9C24.7135 9 25.2251 9.20667 25.5318 9.62C25.8418 10.0333 25.9968 10.5933 25.9968 11.3V14H25.0968V11.3C25.0968 10.78 25.0001 10.4 24.8068 10.16C24.6135 9.92 24.2835 9.8 23.8168 9.8C23.4868 9.8 23.1835 9.87333 22.9068 10.02C22.6335 10.1633 22.4535 10.3933 22.3668 10.71L22.4768 10.16V14H21.5768ZM29.4127 14.1C28.8594 14.1 28.3944 13.9883 28.0177 13.765C27.6444 13.5383 27.3611 13.235 27.1677 12.855C26.9777 12.4717 26.8827 12.0467 26.8827 11.58C26.8827 11.0933 26.9744 10.655 27.1577 10.265C27.3444 9.875 27.6294 9.56667 28.0127 9.34C28.3961 9.11333 28.8861 9 29.4827 9C29.7394 9 29.9811 9.02667 30.2077 9.08C30.4377 9.13 30.6427 9.2 30.8227 9.29L30.6827 10.08C30.4994 9.99333 30.3044 9.925 30.0977 9.875C29.8944 9.825 29.6827 9.8 29.4627 9.8C28.9227 9.8 28.5111 9.95333 28.2277 10.26C27.9444 10.5667 27.8027 10.9933 27.8027 11.54C27.8027 12.0733 27.9377 12.5017 28.2077 12.825C28.4777 13.1483 28.8894 13.31 29.4427 13.31C29.6694 13.31 29.8861 13.2833 30.0927 13.23C30.3027 13.1767 30.5027 13.1033 30.6927 13.01L30.8127 13.73C30.6794 13.8233 30.4844 13.9083 30.2277 13.985C29.9711 14.0617 29.6994 14.1 29.4127 14.1ZM33.9854 14.1C33.4087 14.1 32.9237 13.9817 32.5304 13.745C32.1371 13.5083 31.8387 13.195 31.6354 12.805C31.4354 12.4117 31.3354 11.98 31.3354 11.51C31.3354 11.0533 31.4287 10.635 31.6154 10.255C31.8054 9.875 32.0787 9.57167 32.4354 9.345C32.7954 9.115 33.2287 9 33.7354 9C34.1421 9 34.5037 9.08167 34.8204 9.245C35.1404 9.405 35.3904 9.64 35.5704 9.95C35.7537 10.2567 35.8454 10.63 35.8454 11.07C35.8454 11.14 35.8421 11.2167 35.8354 11.3C35.8321 11.38 35.8221 11.4633 35.8054 11.55H32.2554C32.2987 12.0033 32.4071 12.3567 32.5804 12.61C32.7537 12.8633 32.9721 13.0417 33.2354 13.145C33.4987 13.2483 33.7854 13.3 34.0954 13.3C34.3221 13.3 34.5587 13.2767 34.8054 13.23C35.0521 13.1833 35.2854 13.11 35.5054 13.01L35.6254 13.72C35.4354 13.8033 35.2037 13.8883 34.9304 13.975C34.6571 14.0583 34.3421 14.1 33.9854 14.1ZM32.3354 10.93H34.9154C34.9154 10.7 34.8721 10.5 34.7854 10.33C34.6987 10.16 34.5671 10.03 34.3904 9.94C34.2137 9.84667 33.9887 9.8 33.7154 9.8C33.3154 9.8 33.0071 9.9 32.7904 10.1C32.5771 10.2967 32.4254 10.5733 32.3354 10.93ZM38.0126 14.1C37.6959 14.1 37.4442 14.0433 37.2576 13.93C37.0742 13.8133 36.9426 13.665 36.8626 13.485C36.7826 13.305 36.7426 13.1167 36.7426 12.92V6.5H37.6426V12.4C37.6426 12.68 37.6609 12.89 37.6976 13.03C37.7342 13.17 37.8076 13.2633 37.9176 13.31C38.0309 13.3567 38.2026 13.38 38.4326 13.38L38.3026 14.1H38.0126ZM41.417 14.1C40.8404 14.1 40.3554 13.9817 39.962 13.745C39.5687 13.5083 39.2704 13.195 39.067 12.805C38.867 12.4117 38.767 11.98 38.767 11.51C38.767 11.0533 38.8604 10.635 39.047 10.255C39.237 9.875 39.5104 9.57167 39.867 9.345C40.227 9.115 40.6604 9 41.167 9C41.5737 9 41.9354 9.08167 42.252 9.245C42.572 9.405 42.822 9.64 43.002 9.95C43.1854 10.2567 43.277 10.63 43.277 11.07C43.277 11.14 43.2737 11.2167 43.267 11.3C43.2637 11.38 43.2537 11.4633 43.237 11.55H39.687C39.7304 12.0033 39.8387 12.3567 40.012 12.61C40.1854 12.8633 40.4037 13.0417 40.667 13.145C40.9304 13.2483 41.217 13.3 41.527 13.3C41.7537 13.3 41.9904 13.2767 42.237 13.23C42.4837 13.1833 42.717 13.11 42.937 13.01L43.057 13.72C42.867 13.8033 42.6354 13.8883 42.362 13.975C42.0887 14.0583 41.7737 14.1 41.417 14.1ZM39.767 10.93H42.347C42.347 10.7 42.3037 10.5 42.217 10.33C42.1304 10.16 41.9987 10.03 41.822 9.94C41.6454 9.84667 41.4204 9.8 41.147 9.8C40.747 9.8 40.4387 9.9 40.222 10.1C40.0087 10.2967 39.857 10.5733 39.767 10.93ZM46.1242 14.1C45.7076 14.1 45.3309 13.9867 44.9942 13.76C44.6576 13.5333 44.3892 13.2283 44.1892 12.845C43.9926 12.4617 43.8942 12.0333 43.8942 11.56C43.8942 11.11 43.9842 10.69 44.1642 10.3C44.3476 9.91 44.6059 9.59667 44.9392 9.36C45.2726 9.12 45.6676 9 46.1242 9C46.4509 9 46.7659 9.07167 47.0692 9.215C47.3759 9.355 47.6242 9.59 47.8142 9.92L47.6242 10.05V6.5H48.5242V14H47.7242L47.5542 12.96L47.7842 13.12C47.6409 13.4433 47.4159 13.6883 47.1092 13.855C46.8026 14.0183 46.4742 14.1 46.1242 14.1ZM46.2842 13.3C46.5109 13.3 46.7342 13.2417 46.9542 13.125C47.1776 13.0083 47.3609 12.8233 47.5042 12.57C47.6509 12.3133 47.7242 11.9767 47.7242 11.56C47.7242 11.1733 47.6509 10.85 47.5042 10.59C47.3609 10.3267 47.1776 10.13 46.9542 10C46.7342 9.86667 46.5109 9.8 46.2842 9.8C45.9776 9.8 45.7142 9.87667 45.4942 10.03C45.2742 10.1833 45.1059 10.3933 44.9892 10.66C44.8726 10.9233 44.8142 11.2233 44.8142 11.56C44.8142 11.8767 44.8726 12.1667 44.9892 12.43C45.1059 12.6933 45.2742 12.905 45.4942 13.065C45.7142 13.2217 45.9776 13.3 46.2842 13.3Z" fill="#4C4D4F"/>
</svg>
