<svg width="69" height="21" viewBox="0 0 69 21" fill="none" xmlns="http://www.w3.org/2000/svg">
<rect y="2" width="69" height="17" rx="8.5" fill="#36C490"/>
<path d="M13.92 14.14C13.24 14.14 12.6333 13.9917 12.1 13.695C11.57 13.395 11.1517 12.9733 10.845 12.43C10.5417 11.8833 10.39 11.24 10.39 10.5C10.39 9.76 10.5433 9.11833 10.85 8.575C11.16 8.02833 11.5833 7.60667 12.12 7.31C12.66 7.01 13.2733 6.86 13.96 6.86C14.3167 6.86 14.6567 6.89833 14.98 6.975C15.3033 7.05167 15.5867 7.15 15.83 7.27L15.73 8.15C15.48 8.03 15.205 7.92833 14.905 7.845C14.605 7.76167 14.2867 7.72 13.95 7.72C13.4 7.72 12.9383 7.845 12.565 8.095C12.1917 8.34167 11.9083 8.675 11.715 9.095C11.525 9.515 11.43 9.98333 11.43 10.5C11.43 11.0167 11.5233 11.485 11.71 11.905C11.9 12.325 12.18 12.66 12.55 12.91C12.9233 13.1567 13.3833 13.28 13.93 13.28C14.2767 13.28 14.5967 13.2433 14.89 13.17C15.1867 13.0933 15.4667 12.99 15.73 12.86L15.83 13.74C15.58 13.8533 15.2983 13.9483 14.985 14.025C14.6717 14.1017 14.3167 14.14 13.92 14.14ZM18.7754 14.1C18.2621 14.1 17.8237 13.9867 17.4604 13.76C17.1004 13.53 16.8237 13.2233 16.6304 12.84C16.4404 12.4533 16.3454 12.0233 16.3454 11.55C16.3454 11.0767 16.4404 10.6483 16.6304 10.265C16.8237 9.87833 17.1004 9.57167 17.4604 9.345C17.8237 9.115 18.2621 9 18.7754 9C19.2854 9 19.7221 9.115 20.0854 9.345C20.4487 9.57167 20.7254 9.87833 20.9154 10.265C21.1087 10.6483 21.2054 11.0767 21.2054 11.55C21.2054 12.0233 21.1087 12.4533 20.9154 12.84C20.7254 13.2233 20.4487 13.53 20.0854 13.76C19.7221 13.9867 19.2854 14.1 18.7754 14.1ZM18.7754 13.3C19.2621 13.3 19.6354 13.1467 19.8954 12.84C20.1554 12.53 20.2854 12.1 20.2854 11.55C20.2854 11 20.1554 10.5717 19.8954 10.265C19.6354 9.955 19.2621 9.8 18.7754 9.8C18.2921 9.8 17.9187 9.955 17.6554 10.265C17.3954 10.5717 17.2654 11 17.2654 11.55C17.2654 12.1 17.3954 12.53 17.6554 12.84C17.9187 13.1467 18.2921 13.3 18.7754 13.3ZM22.1334 14V9.1H22.8334L23.0134 10.04L22.6734 9.88C22.9801 9.55 23.2784 9.32167 23.5684 9.195C23.8584 9.065 24.1634 9 24.4834 9C24.7234 9 24.9534 9.04 25.1734 9.12C25.3968 9.19667 25.5968 9.33333 25.7734 9.53C25.9534 9.72333 26.0968 9.99333 26.2034 10.34L25.9534 10.23C26.1001 9.85 26.3251 9.55 26.6284 9.33C26.9318 9.11 27.3401 9 27.8534 9C28.2634 9 28.6084 9.07667 28.8884 9.23C29.1684 9.38 29.3784 9.61167 29.5184 9.925C29.6618 10.235 29.7334 10.63 29.7334 11.11V14H28.8334V11.12C28.8334 10.66 28.7434 10.325 28.5634 10.115C28.3834 9.905 28.0901 9.8 27.6834 9.8C27.3968 9.8 27.1668 9.845 26.9934 9.935C26.8201 10.0217 26.6884 10.135 26.5984 10.275C26.5118 10.415 26.4534 10.5633 26.4234 10.72C26.3968 10.8767 26.3834 11.0233 26.3834 11.16V14H25.4834V11.3C25.4834 10.9 25.4351 10.5917 25.3384 10.375C25.2418 10.1583 25.1068 10.0083 24.9334 9.925C24.7601 9.84167 24.5601 9.8 24.3334 9.8C24.0034 9.8 23.7084 9.87333 23.4484 10.02C23.1884 10.1633 23.0134 10.3933 22.9234 10.71L23.0334 10.22V14H22.1334ZM30.903 16.42V9.1H31.603L31.763 10.22L31.513 10.04C31.7196 9.72 31.9746 9.46667 32.278 9.28C32.5813 9.09333 32.953 9 33.393 9C33.8396 9 34.223 9.11333 34.543 9.34C34.863 9.56667 35.108 9.87333 35.278 10.26C35.448 10.6433 35.533 11.0733 35.533 11.55C35.533 12.0267 35.453 12.4583 35.293 12.845C35.133 13.2283 34.8946 13.5333 34.578 13.76C34.2613 13.9867 33.8663 14.1 33.393 14.1C33.003 14.1 32.6496 14.02 32.333 13.86C32.0196 13.6967 31.793 13.4533 31.653 13.13L31.803 12.95V16.42H30.903ZM33.223 13.3C33.6596 13.3 33.9996 13.1467 34.243 12.84C34.4896 12.53 34.613 12.1 34.613 11.55C34.613 11 34.4896 10.5717 34.243 10.265C33.9996 9.955 33.6596 9.8 33.223 9.8C32.953 9.8 32.7063 9.865 32.483 9.995C32.263 10.1217 32.0863 10.315 31.953 10.575C31.8196 10.8317 31.753 11.1567 31.753 11.55C31.753 11.96 31.8196 12.2933 31.953 12.55C32.0863 12.8067 32.263 12.9967 32.483 13.12C32.7063 13.24 32.953 13.3 33.223 13.3ZM37.7294 14.1C37.4127 14.1 37.161 14.0433 36.9744 13.93C36.791 13.8133 36.6594 13.665 36.5794 13.485C36.4994 13.305 36.4594 13.1167 36.4594 12.92V6.5H37.3594V12.4C37.3594 12.68 37.3777 12.89 37.4144 13.03C37.451 13.17 37.5244 13.2633 37.6344 13.31C37.7477 13.3567 37.9194 13.38 38.1494 13.38L38.0194 14.1H37.7294ZM41.1338 14.1C40.5572 14.1 40.0722 13.9817 39.6788 13.745C39.2855 13.5083 38.9872 13.195 38.7838 12.805C38.5838 12.4117 38.4838 11.98 38.4838 11.51C38.4838 11.0533 38.5772 10.635 38.7638 10.255C38.9538 9.875 39.2272 9.57167 39.5838 9.345C39.9438 9.115 40.3772 9 40.8838 9C41.2905 9 41.6522 9.08167 41.9688 9.245C42.2888 9.405 42.5388 9.64 42.7188 9.95C42.9022 10.2567 42.9938 10.63 42.9938 11.07C42.9938 11.14 42.9905 11.2167 42.9838 11.3C42.9805 11.38 42.9705 11.4633 42.9538 11.55H39.4038C39.4472 12.0033 39.5555 12.3567 39.7288 12.61C39.9022 12.8633 40.1205 13.0417 40.3838 13.145C40.6472 13.2483 40.9338 13.3 41.2438 13.3C41.4705 13.3 41.7072 13.2767 41.9538 13.23C42.2005 13.1833 42.4338 13.11 42.6538 13.01L42.7738 13.72C42.5838 13.8033 42.3522 13.8883 42.0788 13.975C41.8055 14.0583 41.4905 14.1 41.1338 14.1ZM39.4838 10.93H42.0638C42.0638 10.7 42.0205 10.5 41.9338 10.33C41.8472 10.16 41.7155 10.03 41.5388 9.94C41.3622 9.84667 41.1372 9.8 40.8638 9.8C40.4638 9.8 40.1555 9.9 39.9388 10.1C39.7255 10.2967 39.5738 10.5733 39.4838 10.93ZM45.591 14.1C45.281 14.1 45.0327 14.0433 44.846 13.93C44.6593 13.8167 44.5227 13.6717 44.436 13.495C44.3527 13.315 44.311 13.1267 44.311 12.93V9.8H43.471L43.551 9.1H44.311V7.89L45.211 7.8V9.1H46.501V9.8H45.211V12.38C45.211 12.6933 45.2293 12.92 45.266 13.06C45.3027 13.2 45.3927 13.2883 45.536 13.325C45.6827 13.3617 45.9177 13.38 46.241 13.38H46.471L46.401 14.1H45.591ZM49.5811 14.1C49.0044 14.1 48.5194 13.9817 48.1261 13.745C47.7328 13.5083 47.4344 13.195 47.2311 12.805C47.0311 12.4117 46.9311 11.98 46.9311 11.51C46.9311 11.0533 47.0244 10.635 47.2111 10.255C47.4011 9.875 47.6744 9.57167 48.0311 9.345C48.3911 9.115 48.8244 9 49.3311 9C49.7378 9 50.0994 9.08167 50.4161 9.245C50.7361 9.405 50.9861 9.64 51.1661 9.95C51.3494 10.2567 51.4411 10.63 51.4411 11.07C51.4411 11.14 51.4378 11.2167 51.4311 11.3C51.4278 11.38 51.4178 11.4633 51.4011 11.55H47.8511C47.8944 12.0033 48.0028 12.3567 48.1761 12.61C48.3494 12.8633 48.5678 13.0417 48.8311 13.145C49.0944 13.2483 49.3811 13.3 49.6911 13.3C49.9178 13.3 50.1544 13.2767 50.4011 13.23C50.6478 13.1833 50.8811 13.11 51.1011 13.01L51.2211 13.72C51.0311 13.8033 50.7994 13.8883 50.5261 13.975C50.2528 14.0583 49.9378 14.1 49.5811 14.1ZM47.9311 10.93H50.5111C50.5111 10.7 50.4678 10.5 50.3811 10.33C50.2944 10.16 50.1628 10.03 49.9861 9.94C49.8094 9.84667 49.5844 9.8 49.3111 9.8C48.9111 9.8 48.6028 9.9 48.3861 10.1C48.1728 10.2967 48.0211 10.5733 47.9311 10.93Z" fill="white"/>
</svg>
