<svg width="136" height="48" viewBox="0 0 136 48" fill="none" xmlns="http://www.w3.org/2000/svg">
<circle cx="24" cy="24" r="23.5" fill="white" stroke="#4C4D4F"/>
<path d="M23.8523 28.1193C23.2898 28.1193 22.7884 28.0227 22.348 27.8295C21.9105 27.6364 21.5625 27.3679 21.304 27.0241C21.0483 26.6776 20.9091 26.2756 20.8864 25.8182H21.9602C21.983 26.0994 22.0795 26.3423 22.25 26.5469C22.4205 26.7486 22.6435 26.9048 22.919 27.0156C23.1946 27.1264 23.5 27.1818 23.8352 27.1818C24.2102 27.1818 24.5426 27.1165 24.8324 26.9858C25.1222 26.8551 25.3494 26.6733 25.5142 26.4403C25.679 26.2074 25.7614 25.9375 25.7614 25.6307C25.7614 25.3097 25.6818 25.027 25.5227 24.7827C25.3636 24.5355 25.1307 24.3423 24.8239 24.2031C24.517 24.0639 24.142 23.9943 23.6989 23.9943H23V23.0568H23.6989C24.0455 23.0568 24.3494 22.9943 24.6108 22.8693C24.875 22.7443 25.081 22.5682 25.2287 22.3409C25.3793 22.1136 25.4545 21.8466 25.4545 21.5398C25.4545 21.2443 25.3892 20.9872 25.2585 20.7685C25.1278 20.5497 24.9432 20.3793 24.7045 20.2571C24.4688 20.1349 24.1903 20.0739 23.8693 20.0739C23.5682 20.0739 23.2841 20.1293 23.017 20.2401C22.7528 20.348 22.5369 20.5057 22.3693 20.7131C22.2017 20.9176 22.1108 21.1648 22.0966 21.4545H21.0739C21.0909 20.9972 21.2287 20.5966 21.4872 20.2528C21.7457 19.9062 22.0838 19.6364 22.5014 19.4432C22.9219 19.25 23.3835 19.1534 23.8864 19.1534C24.4261 19.1534 24.8892 19.2628 25.2756 19.4815C25.6619 19.6974 25.9588 19.983 26.1662 20.3381C26.3736 20.6932 26.4773 21.0767 26.4773 21.4886C26.4773 21.9801 26.348 22.3991 26.0895 22.7457C25.8338 23.0923 25.4858 23.3324 25.0455 23.4659V23.5341C25.5966 23.625 26.027 23.8594 26.3366 24.2372C26.6463 24.6122 26.8011 25.0767 26.8011 25.6307C26.8011 26.1051 26.6719 26.5312 26.4134 26.9091C26.1577 27.2841 25.8082 27.5795 25.3651 27.7955C24.9219 28.0114 24.4176 28.1193 23.8523 28.1193Z" fill="black"/>
<path d="M63.488 29.196C62.536 29.196 61.6867 28.9883 60.94 28.573C60.198 28.153 59.6123 27.5627 59.183 26.802C58.7583 26.0367 58.546 25.136 58.546 24.1C58.546 23.064 58.7607 22.1657 59.19 21.405C59.624 20.6397 60.2167 20.0493 60.968 19.634C61.724 19.214 62.5827 19.004 63.544 19.004C64.0433 19.004 64.5193 19.0577 64.972 19.165C65.4247 19.2723 65.8213 19.41 66.162 19.578L66.022 20.81C65.672 20.642 65.287 20.4997 64.867 20.383C64.447 20.2663 64.0013 20.208 63.53 20.208C62.76 20.208 62.1137 20.383 61.591 20.733C61.0683 21.0783 60.6717 21.545 60.401 22.133C60.135 22.721 60.002 23.3767 60.002 24.1C60.002 24.8233 60.1327 25.479 60.394 26.067C60.66 26.655 61.052 27.124 61.57 27.474C62.0927 27.8193 62.7367 27.992 63.502 27.992C63.9873 27.992 64.4353 27.9407 64.846 27.838C65.2613 27.7307 65.6533 27.586 66.022 27.404L66.162 28.636C65.812 28.7947 65.4177 28.9277 64.979 29.035C64.5403 29.1423 64.0433 29.196 63.488 29.196ZM70.2855 29.14C69.5669 29.14 68.9532 28.9813 68.4445 28.664C67.9405 28.342 67.5532 27.9127 67.2825 27.376C67.0165 26.8347 66.8835 26.2327 66.8835 25.57C66.8835 24.9073 67.0165 24.3077 67.2825 23.771C67.5532 23.2297 67.9405 22.8003 68.4445 22.483C68.9532 22.161 69.5669 22 70.2855 22C70.9995 22 71.6109 22.161 72.1195 22.483C72.6282 22.8003 73.0155 23.2297 73.2815 23.771C73.5522 24.3077 73.6875 24.9073 73.6875 25.57C73.6875 26.2327 73.5522 26.8347 73.2815 27.376C73.0155 27.9127 72.6282 28.342 72.1195 28.664C71.6109 28.9813 70.9995 29.14 70.2855 29.14ZM70.2855 28.02C70.9669 28.02 71.4895 27.8053 71.8535 27.376C72.2175 26.942 72.3995 26.34 72.3995 25.57C72.3995 24.8 72.2175 24.2003 71.8535 23.771C71.4895 23.337 70.9669 23.12 70.2855 23.12C69.6089 23.12 69.0862 23.337 68.7175 23.771C68.3535 24.2003 68.1715 24.8 68.1715 25.57C68.1715 26.34 68.3535 26.942 68.7175 27.376C69.0862 27.8053 69.6089 28.02 70.2855 28.02ZM74.9868 29V22.14H75.9668L76.2188 23.456L75.7288 23.246C76.1908 22.7327 76.6411 22.3967 77.0798 22.238C77.5231 22.0793 77.9548 22 78.3748 22C79.3781 22 80.0945 22.2893 80.5238 22.868C80.9578 23.4467 81.1748 24.2307 81.1748 25.22V29H79.9148V25.22C79.9148 24.492 79.7795 23.96 79.5088 23.624C79.2381 23.288 78.7761 23.12 78.1228 23.12C77.6608 23.12 77.2361 23.2227 76.8488 23.428C76.4661 23.6287 76.2141 23.9507 76.0928 24.394L76.2468 23.624V29H74.9868ZM83.2148 29V23.12H82.0248L82.1928 22.14H83.2148V20.516C83.2148 19.9047 83.3781 19.417 83.7048 19.053C84.0314 18.6843 84.5121 18.5 85.1468 18.5C85.3801 18.5 85.5831 18.5163 85.7558 18.549C85.9331 18.5817 86.0941 18.626 86.2388 18.682L86.0428 19.746C85.9308 19.704 85.8211 19.6737 85.7138 19.655C85.6064 19.6317 85.4828 19.62 85.3428 19.62C85.0721 19.62 84.8598 19.697 84.7058 19.851C84.5518 20.0003 84.4748 20.25 84.4748 20.6V22.14H86.3228V23.12H84.4748V29H83.2148ZM87.3735 29V22.14H88.6335V29H87.3735ZM87.3735 20.6V19.2H88.6335V20.6H87.3735ZM90.3403 29V22.14H91.3763L91.5303 23.274C91.8803 22.84 92.214 22.5203 92.5313 22.315C92.8533 22.105 93.1963 22 93.5603 22C93.677 22 93.7843 22.014 93.8823 22.042L93.7563 23.428C93.6957 23.414 93.6303 23.4047 93.5603 23.4C93.495 23.3907 93.4203 23.386 93.3363 23.386C92.9723 23.386 92.6363 23.4677 92.3283 23.631C92.025 23.7897 91.8103 23.9647 91.6843 24.156V29H90.3403ZM94.77 29V22.14H95.75L96.002 23.456L95.526 23.232C95.9553 22.77 96.373 22.4503 96.779 22.273C97.185 22.091 97.612 22 98.06 22C98.396 22 98.718 22.056 99.026 22.168C99.3387 22.2753 99.6187 22.4667 99.866 22.742C100.118 23.0127 100.319 23.3907 100.468 23.876L100.118 23.722C100.323 23.19 100.638 22.77 101.063 22.462C101.488 22.154 102.059 22 102.778 22C103.352 22 103.835 22.1073 104.227 22.322C104.619 22.532 104.913 22.8563 105.109 23.295C105.31 23.729 105.41 24.282 105.41 24.954V29H104.15V24.968C104.15 24.324 104.024 23.855 103.772 23.561C103.52 23.267 103.109 23.12 102.54 23.12C102.139 23.12 101.817 23.183 101.574 23.309C101.331 23.4303 101.147 23.589 101.021 23.785C100.9 23.981 100.818 24.1887 100.776 24.408C100.739 24.6273 100.72 24.8327 100.72 25.024V29H99.46V25.22C99.46 24.66 99.3923 24.2283 99.257 23.925C99.1217 23.6217 98.9327 23.4117 98.69 23.295C98.4473 23.1783 98.1673 23.12 97.85 23.12C97.388 23.12 96.975 23.2227 96.611 23.428C96.247 23.6287 96.002 23.9507 95.876 24.394L96.03 23.708V29H94.77ZM108.643 29.14C108.219 29.14 107.848 29.0537 107.53 28.881C107.213 28.7083 106.966 28.4727 106.788 28.174C106.616 27.8753 106.529 27.5347 106.529 27.152C106.529 26.7647 106.613 26.4333 106.781 26.158C106.954 25.878 107.183 25.647 107.467 25.465C107.757 25.2783 108.079 25.1313 108.433 25.024C108.788 24.912 109.154 24.8327 109.532 24.786C109.915 24.7347 110.281 24.7067 110.631 24.702C110.631 24.0487 110.503 23.6217 110.246 23.421C109.99 23.2203 109.619 23.12 109.133 23.12C108.877 23.12 108.601 23.1597 108.307 23.239C108.018 23.3183 107.691 23.484 107.327 23.736L107.145 22.714C107.421 22.504 107.764 22.3337 108.174 22.203C108.585 22.0677 109.017 22 109.469 22C110.048 22 110.515 22.1027 110.869 22.308C111.224 22.5087 111.483 22.8493 111.646 23.33C111.81 23.8107 111.891 24.464 111.891 25.29V26.69C111.891 27.0167 111.905 27.2873 111.933 27.502C111.966 27.712 112.036 27.8707 112.143 27.978C112.255 28.0807 112.433 28.132 112.675 28.132H112.801L112.605 29.14H112.507C112.101 29.14 111.786 29.1003 111.562 29.021C111.343 28.9417 111.175 28.8273 111.058 28.678C110.942 28.5287 110.837 28.3467 110.743 28.132C110.487 28.4307 110.183 28.6733 109.833 28.86C109.483 29.0467 109.087 29.14 108.643 29.14ZM108.881 28.132C109.217 28.132 109.542 28.048 109.854 27.88C110.172 27.712 110.431 27.488 110.631 27.208V25.57C109.964 25.5933 109.423 25.6587 109.007 25.766C108.597 25.8733 108.296 26.0343 108.104 26.249C107.913 26.4637 107.817 26.7413 107.817 27.082C107.817 27.4507 107.915 27.719 108.111 27.887C108.312 28.0503 108.569 28.132 108.881 28.132ZM116.003 29.14C115.569 29.14 115.222 29.0607 114.96 28.902C114.699 28.7433 114.508 28.5403 114.386 28.293C114.27 28.041 114.211 27.7773 114.211 27.502V23.12H113.035L113.147 22.14H114.211V20.446L115.471 20.32V22.14H117.277V23.12H115.471V26.732C115.471 27.1707 115.497 27.488 115.548 27.684C115.6 27.88 115.726 28.0037 115.926 28.055C116.132 28.1063 116.461 28.132 116.913 28.132H117.235L117.137 29.14H116.003ZM118.354 29V22.14H119.614V29H118.354ZM118.354 20.6V19.2H119.614V20.6H118.354ZM124.317 29.14C123.598 29.14 122.984 28.9813 122.476 28.664C121.972 28.342 121.584 27.9127 121.314 27.376C121.048 26.8347 120.915 26.2327 120.915 25.57C120.915 24.9073 121.048 24.3077 121.314 23.771C121.584 23.2297 121.972 22.8003 122.476 22.483C122.984 22.161 123.598 22 124.317 22C125.031 22 125.642 22.161 126.151 22.483C126.659 22.8003 127.047 23.2297 127.313 23.771C127.583 24.3077 127.719 24.9073 127.719 25.57C127.719 26.2327 127.583 26.8347 127.313 27.376C127.047 27.9127 126.659 28.342 126.151 28.664C125.642 28.9813 125.031 29.14 124.317 29.14ZM124.317 28.02C124.998 28.02 125.521 27.8053 125.885 27.376C126.249 26.942 126.431 26.34 126.431 25.57C126.431 24.8 126.249 24.2003 125.885 23.771C125.521 23.337 124.998 23.12 124.317 23.12C123.64 23.12 123.117 23.337 122.749 23.771C122.385 24.2003 122.203 24.8 122.203 25.57C122.203 26.34 122.385 26.942 122.749 27.376C123.117 27.8053 123.64 28.02 124.317 28.02ZM129.018 29V22.14H129.998L130.25 23.456L129.76 23.246C130.222 22.7327 130.672 22.3967 131.111 22.238C131.554 22.0793 131.986 22 132.406 22C133.409 22 134.126 22.2893 134.555 22.868C134.989 23.4467 135.206 24.2307 135.206 25.22V29H133.946V25.22C133.946 24.492 133.811 23.96 133.54 23.624C133.269 23.288 132.807 23.12 132.154 23.12C131.692 23.12 131.267 23.2227 130.88 23.428C130.497 23.6287 130.245 23.9507 130.124 24.394L130.278 23.624V29H129.018Z" fill="black"/>
</svg>
