<svg width="20" height="20" viewBox="0 0 20 20" fill="none" xmlns="http://www.w3.org/2000/svg">
<path d="M5.68917 5.146C5.53916 5.38343 5.33902 5.58516 5.10278 5.73703C4.86655 5.88891 4.59994 5.98725 4.32167 6.02517C4.005 6.07017 3.69083 6.1185 3.37667 6.171C2.49917 6.31684 1.875 7.08934 1.875 7.9785V15.0002C1.875 15.4975 2.07254 15.9744 2.42417 16.326C2.77581 16.6776 3.25272 16.8752 3.75 16.8752H16.25C16.7473 16.8752 17.2242 16.6776 17.5758 16.326C17.9275 15.9744 18.125 15.4975 18.125 15.0002V7.9785C18.125 7.08934 17.5 6.31684 16.6233 6.171C16.3089 6.11862 15.9939 6.07 15.6783 6.02517C15.4002 5.98714 15.1338 5.88874 14.8977 5.73687C14.6616 5.585 14.4616 5.38333 14.3117 5.146L13.6267 4.04934C13.4728 3.79942 13.261 3.59025 13.0092 3.43953C12.7574 3.28882 12.473 3.201 12.18 3.1835C10.7277 3.1055 9.27229 3.1055 7.82 3.1835C7.52705 3.201 7.24262 3.28882 6.9908 3.43953C6.73898 3.59025 6.52718 3.79942 6.37333 4.04934L5.68917 5.146Z" stroke="#4C4D4F" stroke-linecap="round" stroke-linejoin="round"/>
<path d="M13.75 10.625C13.75 11.6196 13.3549 12.5734 12.6516 13.2766C11.9484 13.9799 10.9946 14.375 10 14.375C9.00544 14.375 8.05161 13.9799 7.34835 13.2766C6.64509 12.5734 6.25 11.6196 6.25 10.625C6.25 9.63044 6.64509 8.67661 7.34835 7.97335C8.05161 7.27009 9.00544 6.875 10 6.875C10.9946 6.875 11.9484 7.27009 12.6516 7.97335C13.3549 8.67661 13.75 9.63044 13.75 10.625ZM15.625 8.75H15.6317V8.75667H15.625V8.75Z" stroke="#4C4D4F" stroke-linecap="round" stroke-linejoin="round"/>
</svg>
