<svg width="20" height="20" viewBox="0 0 20 20" fill="none" xmlns="http://www.w3.org/2000/svg">
<path fill-rule="evenodd" clip-rule="evenodd" d="M5 4.99806C5.00001 4.41894 5.16765 3.8522 5.48266 3.36625C5.79768 2.8803 6.24662 2.49592 6.77529 2.2595C7.30395 2.02308 7.88975 1.94473 8.46196 2.03391C9.03418 2.12309 9.56835 2.37598 10 2.76206C10.4964 2.31716 11.1268 2.05026 11.7918 2.00349C12.4567 1.95672 13.1183 2.13274 13.6721 2.50376C14.2259 2.87479 14.6403 3.41968 14.85 4.05244C15.0597 4.68519 15.0526 5.36975 14.83 5.99806H16C16.5304 5.99806 17.0391 6.20877 17.4142 6.58385C17.7893 6.95892 18 7.46763 18 7.99806C18 8.52849 17.7893 9.0372 17.4142 9.41227C17.0391 9.78734 16.5304 9.99806 16 9.99806H11V8.99806C11 8.73284 10.8946 8.47849 10.7071 8.29095C10.5196 8.10342 10.2652 7.99806 10 7.99806C9.73478 7.99806 9.48043 8.10342 9.29289 8.29095C9.10536 8.47849 9 8.73284 9 8.99806V9.99806H4C3.46957 9.99806 2.96086 9.78734 2.58579 9.41227C2.21071 9.0372 2 8.52849 2 7.99806C2 7.46763 2.21071 6.95892 2.58579 6.58385C2.96086 6.20877 3.46957 5.99806 4 5.99806H5.17C5.06 5.68506 5 5.34806 5 4.99806ZM9 5.99806V4.99806C9 4.80028 8.94135 4.60694 8.83147 4.44249C8.72159 4.27804 8.56541 4.14987 8.38268 4.07418C8.19996 3.99849 7.99889 3.97869 7.80491 4.01727C7.61093 4.05586 7.43275 4.1511 7.29289 4.29095C7.15304 4.4308 7.0578 4.60899 7.01921 4.80297C6.98063 4.99695 7.00043 5.19802 7.07612 5.38074C7.15181 5.56347 7.27998 5.71965 7.44443 5.82953C7.60888 5.93941 7.80222 5.99806 8 5.99806H9ZM12 5.99806C12.1978 5.99806 12.3911 5.93941 12.5556 5.82953C12.72 5.71965 12.8482 5.56347 12.9239 5.38074C12.9996 5.19802 13.0194 4.99695 12.9808 4.80297C12.9422 4.60899 12.847 4.4308 12.7071 4.29095C12.5673 4.1511 12.3891 4.05586 12.1951 4.01727C12.0011 3.97869 11.8 3.99849 11.6173 4.07418C11.4346 4.14987 11.2784 4.27804 11.1685 4.44249C11.0586 4.60694 11 4.80028 11 4.99806V5.99806H12Z" fill="#F1B34A"/>
<path d="M9 11H3V16C3 16.5304 3.21071 17.0391 3.58579 17.4142C3.96086 17.7893 4.46957 18 5 18H9V11ZM11 18H15C15.5304 18 16.0391 17.7893 16.4142 17.4142C16.7893 17.0391 17 16.5304 17 16V11H11V18Z" fill="#F1B34A"/>
</svg>
