<svg width="75" height="21" viewBox="0 0 75 21" fill="none" xmlns="http://www.w3.org/2000/svg">
<rect y="2" width="75" height="17" rx="8.5" fill="#F1B34A"/>
<path d="M14.8557 14V7H15.8057V14H14.8557ZM17.1266 14V9.1H17.8266L18.0066 10.04L17.6566 9.89C17.9866 9.52333 18.3083 9.28333 18.6216 9.17C18.9383 9.05667 19.2466 9 19.5466 9C20.2633 9 20.7749 9.20667 21.0816 9.62C21.3916 10.0333 21.5466 10.5933 21.5466 11.3V14H20.6466V11.3C20.6466 10.78 20.5499 10.4 20.3566 10.16C20.1633 9.92 19.8333 9.8 19.3666 9.8C19.0366 9.8 18.7333 9.87333 18.4566 10.02C18.1833 10.1633 18.0033 10.3933 17.9166 10.71L18.0266 10.16V14H17.1266ZM25.1486 14V7H27.4586C27.9286 7 28.342 7.075 28.6986 7.225C29.0553 7.375 29.332 7.61667 29.5286 7.95C29.7286 8.28333 29.8286 8.72333 29.8286 9.27C29.8286 9.80667 29.7286 10.2433 29.5286 10.58C29.332 10.9133 29.0553 11.1583 28.6986 11.315C28.342 11.4717 27.9286 11.55 27.4586 11.55H26.1486V14H25.1486ZM26.1486 10.7H27.3186C27.8286 10.7 28.2103 10.585 28.4636 10.355C28.7203 10.1217 28.8486 9.76333 28.8486 9.28C28.8486 8.79333 28.727 8.43333 28.4836 8.2C28.2436 7.96667 27.8553 7.85 27.3186 7.85H26.1486V10.7ZM30.6032 14V9.1H31.3432L31.4532 9.91C31.7032 9.6 31.9415 9.37167 32.1682 9.225C32.3982 9.075 32.6432 9 32.9032 9C32.9865 9 33.0632 9.01 33.1332 9.03L33.0432 10.02C32.9998 10.01 32.9532 10.0033 32.9032 10C32.8565 9.99333 32.8032 9.99 32.7432 9.99C32.4832 9.99 32.2432 10.0483 32.0232 10.165C31.8065 10.2783 31.6532 10.4033 31.5632 10.54V14H30.6032ZM35.7803 14.1C35.2669 14.1 34.8286 13.9867 34.4653 13.76C34.1053 13.53 33.8286 13.2233 33.6353 12.84C33.4453 12.4533 33.3503 12.0233 33.3503 11.55C33.3503 11.0767 33.4453 10.6483 33.6353 10.265C33.8286 9.87833 34.1053 9.57167 34.4653 9.345C34.8286 9.115 35.2669 9 35.7803 9C36.2903 9 36.7269 9.115 37.0903 9.345C37.4536 9.57167 37.7303 9.87833 37.9203 10.265C38.1136 10.6483 38.2103 11.0767 38.2103 11.55C38.2103 12.0233 38.1136 12.4533 37.9203 12.84C37.7303 13.2233 37.4536 13.53 37.0903 13.76C36.7269 13.9867 36.2903 14.1 35.7803 14.1ZM35.7803 13.3C36.2669 13.3 36.6403 13.1467 36.9003 12.84C37.1603 12.53 37.2903 12.1 37.2903 11.55C37.2903 11 37.1603 10.5717 36.9003 10.265C36.6403 9.955 36.2669 9.8 35.7803 9.8C35.2969 9.8 34.9236 9.955 34.6603 10.265C34.4003 10.5717 34.2703 11 34.2703 11.55C34.2703 12.1 34.4003 12.53 34.6603 12.84C34.9236 13.1467 35.2969 13.3 35.7803 13.3ZM41.1183 16.5C40.6717 16.5 40.2717 16.445 39.9183 16.335C39.5683 16.225 39.2917 16.0617 39.0883 15.845C38.8883 15.6283 38.7883 15.36 38.7883 15.04C38.7883 14.7733 38.8633 14.5433 39.0133 14.35C39.1667 14.16 39.375 14.0067 39.6383 13.89C39.4817 13.8133 39.3617 13.7233 39.2783 13.62C39.1983 13.5133 39.1583 13.3967 39.1583 13.27C39.1583 13.12 39.2033 12.985 39.2933 12.865C39.3867 12.7417 39.535 12.64 39.7383 12.56C39.465 12.39 39.255 12.1617 39.1083 11.875C38.9617 11.585 38.8883 11.2633 38.8883 10.91C38.8883 10.5533 38.9683 10.2317 39.1283 9.945C39.2883 9.655 39.5183 9.425 39.8183 9.255C40.1217 9.085 40.485 9 40.9083 9C41.135 9 41.3483 9.03333 41.5483 9.1C41.7517 9.16667 41.9383 9.26 42.1083 9.38C42.2583 9.29333 42.435 9.22167 42.6383 9.165C42.845 9.10833 43.075 9.08 43.3283 9.08C43.345 9.08 43.3583 9.08 43.3683 9.08C43.3817 9.08 43.395 9.08 43.4083 9.08L43.2983 9.68C43.2583 9.68 43.22 9.68 43.1833 9.68C43.1467 9.68 43.1083 9.68 43.0683 9.68C43.035 9.68 42.9583 9.685 42.8383 9.695C42.7183 9.705 42.6083 9.72333 42.5083 9.75C42.645 9.91 42.75 10.09 42.8233 10.29C42.9 10.4867 42.9383 10.6933 42.9383 10.91C42.9383 11.2833 42.8567 11.6183 42.6933 11.915C42.5333 12.2083 42.3017 12.4417 41.9983 12.615C41.695 12.785 41.3317 12.87 40.9083 12.87C40.7883 12.87 40.6733 12.8633 40.5633 12.85C40.4533 12.8333 40.3483 12.81 40.2483 12.78C40.095 12.83 40.0183 12.9167 40.0183 13.04C40.0183 13.1133 40.0617 13.1783 40.1483 13.235C40.235 13.2883 40.375 13.33 40.5683 13.36L41.8783 13.57C42.4083 13.6533 42.8167 13.8067 43.1033 14.03C43.3933 14.2533 43.5383 14.57 43.5383 14.98C43.5383 15.32 43.4383 15.6017 43.2383 15.825C43.0417 16.0517 42.7617 16.22 42.3983 16.33C42.035 16.4433 41.6083 16.5 41.1183 16.5ZM41.1983 15.7C41.6583 15.7 42.0117 15.64 42.2583 15.52C42.505 15.4033 42.6283 15.23 42.6283 15C42.6283 14.82 42.55 14.6783 42.3933 14.575C42.24 14.4717 42.0183 14.3933 41.7283 14.34L40.3333 14.105C40.15 14.185 39.99 14.2917 39.8533 14.425C39.7167 14.5617 39.6483 14.72 39.6483 14.9C39.6483 15.18 39.7883 15.3833 40.0683 15.51C40.3517 15.6367 40.7283 15.7 41.1983 15.7ZM40.9083 12.15C41.2883 12.15 41.5783 12.0367 41.7783 11.81C41.9783 11.58 42.0783 11.2833 42.0783 10.92C42.0783 10.57 41.9783 10.2833 41.7783 10.06C41.5783 9.83333 41.2883 9.72 40.9083 9.72C40.5283 9.72 40.24 9.83333 40.0433 10.06C39.8467 10.2833 39.7483 10.57 39.7483 10.92C39.7483 11.2833 39.8467 11.58 40.0433 11.81C40.24 12.0367 40.5283 12.15 40.9083 12.15ZM44.1188 14V9.1H44.8588L44.9688 9.91C45.2188 9.6 45.4571 9.37167 45.6838 9.225C45.9138 9.075 46.1588 9 46.4188 9C46.5021 9 46.5788 9.01 46.6488 9.03L46.5588 10.02C46.5155 10.01 46.4688 10.0033 46.4188 10C46.3721 9.99333 46.3188 9.99 46.2588 9.99C45.9988 9.99 45.7588 10.0483 45.5388 10.165C45.3221 10.2783 45.1688 10.4033 45.0788 10.54V14H44.1188ZM49.5059 14.1C48.9292 14.1 48.4442 13.9817 48.0509 13.745C47.6576 13.5083 47.3592 13.195 47.1559 12.805C46.9559 12.4117 46.8559 11.98 46.8559 11.51C46.8559 11.0533 46.9492 10.635 47.1359 10.255C47.3259 9.875 47.5992 9.57167 47.9559 9.345C48.3159 9.115 48.7492 9 49.2559 9C49.6626 9 50.0242 9.08167 50.3409 9.245C50.6609 9.405 50.9109 9.64 51.0909 9.95C51.2742 10.2567 51.3659 10.63 51.3659 11.07C51.3659 11.14 51.3626 11.2167 51.3559 11.3C51.3526 11.38 51.3426 11.4633 51.3259 11.55H47.7759C47.8192 12.0033 47.9276 12.3567 48.1009 12.61C48.2742 12.8633 48.4926 13.0417 48.7559 13.145C49.0192 13.2483 49.3059 13.3 49.6159 13.3C49.8426 13.3 50.0792 13.2767 50.3259 13.23C50.5726 13.1833 50.8059 13.11 51.0259 13.01L51.1459 13.72C50.9559 13.8033 50.7242 13.8883 50.4509 13.975C50.1776 14.0583 49.8626 14.1 49.5059 14.1ZM47.8559 10.93H50.4359C50.4359 10.7 50.3926 10.5 50.3059 10.33C50.2192 10.16 50.0876 10.03 49.9109 9.94C49.7342 9.84667 49.5092 9.8 49.2359 9.8C48.8359 9.8 48.5276 9.9 48.3109 10.1C48.0976 10.2967 47.9459 10.5733 47.8559 10.93ZM53.6631 14.1C53.2298 14.1 52.8698 14.0483 52.5831 13.945C52.2998 13.8417 52.0998 13.75 51.9831 13.67L52.0931 12.8C52.1998 12.8933 52.3881 13 52.6581 13.12C52.9281 13.24 53.2498 13.3 53.6231 13.3C53.9398 13.3 54.1814 13.2467 54.3481 13.14C54.5181 13.0333 54.6031 12.8833 54.6031 12.69C54.6031 12.52 54.5481 12.3833 54.4381 12.28C54.3314 12.1733 54.2014 12.09 54.0481 12.03C53.8981 11.9667 53.7564 11.9167 53.6231 11.88C53.3998 11.82 53.1681 11.745 52.9281 11.655C52.6914 11.5617 52.4914 11.4233 52.3281 11.24C52.1648 11.0567 52.0831 10.8 52.0831 10.47C52.0831 10.22 52.1431 9.98333 52.2631 9.76C52.3831 9.53333 52.5781 9.35 52.8481 9.21C53.1181 9.07 53.4764 9 53.9231 9C54.2498 9 54.5148 9.035 54.7181 9.105C54.9248 9.17167 55.1031 9.24333 55.2531 9.32L55.1431 10.14C54.9998 10.02 54.8331 9.91833 54.6431 9.835C54.4531 9.75167 54.2198 9.71 53.9431 9.71C53.6631 9.71 53.4348 9.76333 53.2581 9.87C53.0814 9.97333 52.9931 10.14 52.9931 10.37C52.9931 10.6 53.0864 10.7633 53.2731 10.86C53.4631 10.9567 53.7498 11.0633 54.1331 11.18C54.2531 11.2133 54.3914 11.2617 54.5481 11.325C54.7081 11.3883 54.8631 11.4733 55.0131 11.58C55.1631 11.6867 55.2864 11.8267 55.3831 12C55.4831 12.17 55.5331 12.3833 55.5331 12.64C55.5331 12.8567 55.4814 13.0783 55.3781 13.305C55.2748 13.5283 55.0881 13.7167 54.8181 13.87C54.5481 14.0233 54.1631 14.1 53.6631 14.1ZM57.8037 14.1C57.3704 14.1 57.0104 14.0483 56.7237 13.945C56.4404 13.8417 56.2404 13.75 56.1237 13.67L56.2337 12.8C56.3404 12.8933 56.5287 13 56.7987 13.12C57.0687 13.24 57.3904 13.3 57.7637 13.3C58.0804 13.3 58.322 13.2467 58.4887 13.14C58.6587 13.0333 58.7437 12.8833 58.7437 12.69C58.7437 12.52 58.6887 12.3833 58.5787 12.28C58.472 12.1733 58.342 12.09 58.1887 12.03C58.0387 11.9667 57.897 11.9167 57.7637 11.88C57.5404 11.82 57.3087 11.745 57.0687 11.655C56.832 11.5617 56.632 11.4233 56.4687 11.24C56.3054 11.0567 56.2237 10.8 56.2237 10.47C56.2237 10.22 56.2837 9.98333 56.4037 9.76C56.5237 9.53333 56.7187 9.35 56.9887 9.21C57.2587 9.07 57.617 9 58.0637 9C58.3904 9 58.6554 9.035 58.8587 9.105C59.0654 9.17167 59.2437 9.24333 59.3937 9.32L59.2837 10.14C59.1404 10.02 58.9737 9.91833 58.7837 9.835C58.5937 9.75167 58.3604 9.71 58.0837 9.71C57.8037 9.71 57.5754 9.76333 57.3987 9.87C57.222 9.97333 57.1337 10.14 57.1337 10.37C57.1337 10.6 57.227 10.7633 57.4137 10.86C57.6037 10.9567 57.8904 11.0633 58.2737 11.18C58.3937 11.2133 58.532 11.2617 58.6887 11.325C58.8487 11.3883 59.0037 11.4733 59.1537 11.58C59.3037 11.6867 59.427 11.8267 59.5237 12C59.6237 12.17 59.6737 12.3833 59.6737 12.64C59.6737 12.8567 59.622 13.0783 59.5187 13.305C59.4154 13.5283 59.2287 13.7167 58.9587 13.87C58.6887 14.0233 58.3037 14.1 57.8037 14.1Z" fill="white"/>
</svg>
