<svg width="111" height="48" viewBox="0 0 111 48" fill="none" xmlns="http://www.w3.org/2000/svg">
<circle cx="24" cy="24" r="24" fill="#36C490"/>
<path d="M16.5 24.75L22.5 30.75L31.5 17.25" stroke="white" stroke-width="1.5" stroke-linecap="round" stroke-linejoin="round"/>
<path d="M61.92 29.196C61.514 29.196 61.108 29.1657 60.702 29.105C60.296 29.0443 59.9203 28.9673 59.575 28.874C59.2297 28.776 58.9427 28.6733 58.714 28.566L58.896 27.152C59.148 27.2733 59.4513 27.3993 59.806 27.53C60.1653 27.6607 60.5527 27.7703 60.968 27.859C61.3833 27.9477 61.8033 27.992 62.228 27.992C62.858 27.992 63.3573 27.8777 63.726 27.649C64.0993 27.4157 64.286 27.054 64.286 26.564C64.286 26.1953 64.1927 25.8943 64.006 25.661C63.8193 25.423 63.537 25.22 63.159 25.052C62.7857 24.884 62.3167 24.716 61.752 24.548C61.2153 24.3893 60.7207 24.2027 60.268 23.988C59.8153 23.7687 59.4513 23.477 59.176 23.113C58.9053 22.7443 58.77 22.2567 58.77 21.65C58.77 21.132 58.903 20.6747 59.169 20.278C59.4397 19.8767 59.834 19.564 60.352 19.34C60.8747 19.116 61.514 19.004 62.27 19.004C62.914 19.004 63.5043 19.074 64.041 19.214C64.5823 19.354 65.028 19.508 65.378 19.676L65.238 21.09C64.706 20.7727 64.1973 20.5463 63.712 20.411C63.2313 20.2757 62.732 20.208 62.214 20.208C61.64 20.208 61.164 20.3153 60.786 20.53C60.4127 20.7447 60.226 21.0947 60.226 21.58C60.226 21.9067 60.31 22.175 60.478 22.385C60.646 22.5903 60.8957 22.7677 61.227 22.917C61.5583 23.0617 61.9713 23.2087 62.466 23.358C63.1473 23.5633 63.733 23.799 64.223 24.065C64.713 24.3263 65.0887 24.6507 65.35 25.038C65.6113 25.4207 65.742 25.8967 65.742 26.466C65.742 26.886 65.6627 27.264 65.504 27.6C65.3453 27.936 65.1073 28.223 64.79 28.461C64.4727 28.699 64.0737 28.881 63.593 29.007C63.117 29.133 62.5593 29.196 61.92 29.196ZM66.9338 29V18.5H68.2078V23.33L67.7598 23.302C68.0818 22.896 68.4271 22.5787 68.7958 22.35C69.1691 22.1167 69.6451 22 70.2238 22C70.8164 22 71.3111 22.133 71.7078 22.399C72.1044 22.665 72.4008 23.036 72.5968 23.512C72.7974 23.988 72.8978 24.5433 72.8978 25.178V29H71.6378V25.332C71.6378 24.576 71.4978 24.0183 71.2178 23.659C70.9424 23.2997 70.5178 23.12 69.9438 23.12C69.5098 23.12 69.1248 23.2367 68.7888 23.47C68.4574 23.7033 68.1938 24.016 67.9978 24.408L68.2078 23.638V29H66.9338ZM74.5356 29V22.14H75.7956V29H74.5356ZM74.5356 20.6V19.2H75.7956V20.6H74.5356ZM77.5024 32.388V22.14H78.4824L78.7064 23.708L78.3564 23.456C78.6458 23.008 79.0028 22.6533 79.4274 22.392C79.8521 22.1307 80.3724 22 80.9884 22C81.6138 22 82.1504 22.1587 82.5984 22.476C83.0464 22.7933 83.3894 23.2227 83.6274 23.764C83.8654 24.3007 83.9844 24.9027 83.9844 25.57C83.9844 26.2373 83.8724 26.8417 83.6484 27.383C83.4244 27.9197 83.0908 28.3467 82.6474 28.664C82.2041 28.9813 81.6511 29.14 80.9884 29.14C80.4424 29.14 79.9478 29.028 79.5044 28.804C79.0658 28.5753 78.7484 28.2347 78.5524 27.782L78.7624 27.53V32.388H77.5024ZM80.7504 28.02C81.3618 28.02 81.8378 27.8053 82.1784 27.376C82.5238 26.942 82.6964 26.34 82.6964 25.57C82.6964 24.8 82.5238 24.2003 82.1784 23.771C81.8378 23.337 81.3618 23.12 80.7504 23.12C80.3724 23.12 80.0271 23.211 79.7144 23.393C79.4064 23.5703 79.1591 23.841 78.9724 24.205C78.7858 24.5643 78.6924 25.0193 78.6924 25.57C78.6924 26.144 78.7858 26.6107 78.9724 26.97C79.1591 27.3293 79.4064 27.5953 79.7144 27.768C80.0271 27.936 80.3724 28.02 80.7504 28.02ZM85.2954 32.388V22.14H86.2754L86.4994 23.708L86.1494 23.456C86.4387 23.008 86.7957 22.6533 87.2204 22.392C87.6451 22.1307 88.1654 22 88.7814 22C89.4067 22 89.9434 22.1587 90.3914 22.476C90.8394 22.7933 91.1824 23.2227 91.4204 23.764C91.6584 24.3007 91.7774 24.9027 91.7774 25.57C91.7774 26.2373 91.6654 26.8417 91.4414 27.383C91.2174 27.9197 90.8837 28.3467 90.4404 28.664C89.9971 28.9813 89.4441 29.14 88.7814 29.14C88.2354 29.14 87.7407 29.028 87.2974 28.804C86.8587 28.5753 86.5414 28.2347 86.3454 27.782L86.5554 27.53V32.388H85.2954ZM88.5434 28.02C89.1547 28.02 89.6307 27.8053 89.9714 27.376C90.3167 26.942 90.4894 26.34 90.4894 25.57C90.4894 24.8 90.3167 24.2003 89.9714 23.771C89.6307 23.337 89.1547 23.12 88.5434 23.12C88.1654 23.12 87.8201 23.211 87.5074 23.393C87.1994 23.5703 86.9521 23.841 86.7654 24.205C86.5787 24.5643 86.4854 25.0193 86.4854 25.57C86.4854 26.144 86.5787 26.6107 86.7654 26.97C86.9521 27.3293 87.1994 27.5953 87.5074 27.768C87.8201 27.936 88.1654 28.02 88.5434 28.02ZM93.0884 29V22.14H94.3484V29H93.0884ZM93.0884 20.6V19.2H94.3484V20.6H93.0884ZM96.0552 29V22.14H97.0352L97.2872 23.456L96.7972 23.246C97.2592 22.7327 97.7095 22.3967 98.1482 22.238C98.5915 22.0793 99.0232 22 99.4432 22C100.447 22 101.163 22.2893 101.592 22.868C102.026 23.4467 102.243 24.2307 102.243 25.22V29H100.983V25.22C100.983 24.492 100.848 23.96 100.577 23.624C100.307 23.288 99.8445 23.12 99.1912 23.12C98.7292 23.12 98.3045 23.2227 97.9172 23.428C97.5345 23.6287 97.2825 23.9507 97.1612 24.394L97.3152 23.624V29H96.0552ZM106.647 32.5C106.022 32.5 105.462 32.423 104.967 32.269C104.477 32.115 104.09 31.8863 103.805 31.583C103.525 31.2797 103.385 30.904 103.385 30.456C103.385 30.0827 103.49 29.7607 103.7 29.49C103.915 29.224 104.207 29.0093 104.575 28.846C104.356 28.7387 104.188 28.6127 104.071 28.468C103.959 28.3187 103.903 28.1553 103.903 27.978C103.903 27.768 103.966 27.579 104.092 27.411C104.223 27.2383 104.431 27.096 104.715 26.984C104.333 26.746 104.039 26.4263 103.833 26.025C103.628 25.619 103.525 25.1687 103.525 24.674C103.525 24.1747 103.637 23.7243 103.861 23.323C104.085 22.917 104.407 22.595 104.827 22.357C105.252 22.119 105.761 22 106.353 22C106.671 22 106.969 22.0467 107.249 22.14C107.534 22.2333 107.795 22.364 108.033 22.532C108.243 22.4107 108.491 22.3103 108.775 22.231C109.065 22.1517 109.387 22.112 109.741 22.112C109.765 22.112 109.783 22.112 109.797 22.112C109.816 22.112 109.835 22.112 109.853 22.112L109.699 22.952C109.643 22.952 109.59 22.952 109.538 22.952C109.487 22.952 109.433 22.952 109.377 22.952C109.331 22.952 109.223 22.959 109.055 22.973C108.887 22.987 108.733 23.0127 108.593 23.05C108.785 23.274 108.932 23.526 109.034 23.806C109.142 24.0813 109.195 24.3707 109.195 24.674C109.195 25.1967 109.081 25.6657 108.852 26.081C108.628 26.4917 108.304 26.8183 107.879 27.061C107.455 27.299 106.946 27.418 106.353 27.418C106.185 27.418 106.024 27.4087 105.87 27.39C105.716 27.3667 105.569 27.334 105.429 27.292C105.215 27.362 105.107 27.4833 105.107 27.656C105.107 27.7587 105.168 27.8497 105.289 27.929C105.411 28.0037 105.607 28.062 105.877 28.104L107.711 28.398C108.453 28.5147 109.025 28.7293 109.426 29.042C109.832 29.3547 110.035 29.798 110.035 30.372C110.035 30.848 109.895 31.2423 109.615 31.555C109.34 31.8723 108.948 32.108 108.439 32.262C107.931 32.4207 107.333 32.5 106.647 32.5ZM106.759 31.38C107.403 31.38 107.898 31.296 108.243 31.128C108.589 30.9647 108.761 30.722 108.761 30.4C108.761 30.148 108.652 29.9497 108.432 29.805C108.218 29.6603 107.907 29.5507 107.501 29.476L105.548 29.147C105.292 29.259 105.068 29.4083 104.876 29.595C104.685 29.7863 104.589 30.008 104.589 30.26C104.589 30.652 104.785 30.9367 105.177 31.114C105.574 31.2913 106.101 31.38 106.759 31.38ZM106.353 26.41C106.885 26.41 107.291 26.2513 107.571 25.934C107.851 25.612 107.991 25.1967 107.991 24.688C107.991 24.198 107.851 23.7967 107.571 23.484C107.291 23.1667 106.885 23.008 106.353 23.008C105.821 23.008 105.418 23.1667 105.142 23.484C104.867 23.7967 104.729 24.198 104.729 24.688C104.729 25.1967 104.867 25.612 105.142 25.934C105.418 26.2513 105.821 26.41 106.353 26.41Z" fill="black"/>
</svg>
